<svg width="541" height="216" viewBox="0 0 541 216" fill="none" xmlns="http://www.w3.org/2000/svg">
<path d="M0 0H541V216H0V0Z" fill="#D40A3E"/>
<path d="M129.84 0H43.28L236.237 216H322.797L129.84 0Z" fill="#171A0C"/>
<path d="M302.96 0H216.4L409.357 216H495.917L302.96 0Z" fill="#171A0C"/>
<path d="M476.08 0H389.52L541 169.57V72.6728L476.08 0Z" fill="#171A0C"/>
<path d="M0 48.4488V145.346L63.1167 216H149.677L0 48.4488Z" fill="#171A0C"/>
<rect width="455" height="88" transform="translate(42.5 64)" fill="#171A0C"/>
<path d="M59.3 132.68V141.08H52.5V116.52H59.3V124.92H80.5V132.68H59.3ZM81.06 100.434C81.06 102.62 80.7133 104.647 80.02 106.514C79.3 108.354 78.3 109.954 77.02 111.314C75.74 112.674 74.22 113.74 72.46 114.514C70.6733 115.287 68.7133 115.674 66.58 115.674H66.5C64.4733 115.674 62.58 115.3 60.82 114.554C59.0333 113.78 57.4867 112.727 56.18 111.394C54.8467 110.06 53.8067 108.474 53.06 106.634C52.3133 104.767 51.94 102.754 51.94 100.594C51.94 98.1137 52.3 95.9804 53.02 94.1937C53.74 92.3804 54.74 90.7271 56.02 89.2337L61.5 93.7937C60.6467 94.8071 59.9933 95.8471 59.54 96.9137C59.0867 97.9537 58.86 99.1671 58.86 100.554C58.86 101.567 59.06 102.514 59.46 103.394C59.86 104.247 60.4067 104.994 61.1 105.634C61.7933 106.274 62.6067 106.78 63.54 107.154C64.4733 107.527 65.4733 107.714 66.54 107.714H66.62C67.74 107.714 68.78 107.527 69.74 107.154C70.7 106.78 71.5267 106.26 72.22 105.594C72.8867 104.9 73.42 104.1 73.82 103.194C74.1933 102.26 74.38 101.234 74.38 100.114C74.38 98.3004 73.9933 96.8071 73.22 95.6337H69.82V101.154H64.14V88.2737H76.74C77.9667 89.7671 78.9933 91.5271 79.82 93.5537C80.6467 95.5804 81.06 97.8737 81.06 100.434ZM52.5 85.4116V77.6116H80.5V85.4116H52.5Z" fill="white"/>
<path d="M95.088 82.2H136.528V94.78H109.444V103.586H133.938V115.5H109.444V134H95.088V82.2ZM153.358 107.656L136.338 82.2H152.84L162.016 96.778L171.266 82.2H187.398L170.378 107.508L188.138 134H171.636L161.72 118.386L151.73 134H135.598L153.358 107.656ZM227.045 134.888C222.408 134.888 217.992 134.173 213.799 132.742C209.655 131.311 205.98 129.165 202.773 126.304L210.765 116.758C215.945 120.902 221.544 122.974 227.563 122.974C229.487 122.974 230.942 122.678 231.929 122.086C232.965 121.445 233.483 120.557 233.483 119.422V119.274C233.483 118.731 233.36 118.263 233.113 117.868C232.866 117.424 232.398 117.005 231.707 116.61C231.066 116.215 230.178 115.845 229.043 115.5C227.958 115.105 226.527 114.711 224.751 114.316C221.988 113.675 219.423 112.984 217.055 112.244C214.687 111.455 212.615 110.468 210.839 109.284C209.112 108.051 207.731 106.546 206.695 104.77C205.708 102.945 205.215 100.7 205.215 98.036V97.888C205.215 95.4707 205.659 93.2507 206.547 91.228C207.484 89.2053 208.816 87.454 210.543 85.974C212.319 84.494 214.44 83.3593 216.907 82.57C219.374 81.7313 222.161 81.312 225.269 81.312C229.709 81.312 233.656 81.904 237.109 83.088C240.612 84.2227 243.769 85.9247 246.581 88.194L239.403 98.332C237.035 96.6547 234.593 95.3967 232.077 94.558C229.61 93.67 227.218 93.226 224.899 93.226C223.172 93.226 221.865 93.5467 220.977 94.188C220.138 94.8293 219.719 95.6187 219.719 96.556V96.704C219.719 97.296 219.842 97.814 220.089 98.258C220.385 98.702 220.854 99.1213 221.495 99.516C222.186 99.8613 223.098 100.231 224.233 100.626C225.417 100.971 226.897 101.341 228.673 101.736C231.633 102.377 234.297 103.142 236.665 104.03C239.082 104.869 241.13 105.905 242.807 107.138C244.484 108.371 245.767 109.876 246.655 111.652C247.543 113.379 247.987 115.451 247.987 117.868V118.016C247.987 120.68 247.469 123.048 246.433 125.12C245.446 127.192 244.04 128.968 242.215 130.448C240.39 131.879 238.194 132.989 235.629 133.778C233.064 134.518 230.202 134.888 227.045 134.888ZM263.922 94.78H248.382V82.2H293.818V94.78H278.278V134H263.922V94.78ZM326.908 113.576L321.136 98.85L315.29 113.576H326.908ZM314.328 81.83H328.166L350.218 134H334.826L331.052 124.75H311.072L307.372 134H292.276L314.328 81.83ZM376.63 122.456C378.85 122.456 380.552 122.061 381.736 121.272C382.92 120.433 383.512 119.249 383.512 117.72V117.572C383.512 116.141 382.945 115.007 381.81 114.168C380.676 113.329 378.9 112.91 376.482 112.91H365.53V122.456H376.63ZM374.558 102.846C376.778 102.846 378.456 102.476 379.59 101.736C380.774 100.996 381.366 99.8613 381.366 98.332V98.184C381.366 96.7533 380.824 95.668 379.738 94.928C378.653 94.1387 377.025 93.744 374.854 93.744H365.53V102.846H374.558ZM351.544 82.2H378.11C381.366 82.2 384.154 82.5947 386.472 83.384C388.791 84.1733 390.715 85.3327 392.244 86.862C393.28 87.898 394.094 89.1067 394.686 90.488C395.278 91.8693 395.574 93.448 395.574 95.224V95.372C395.574 98.3813 394.81 100.823 393.28 102.698C391.8 104.523 389.901 105.929 387.582 106.916C390.74 107.952 393.231 109.457 395.056 111.43C396.931 113.354 397.868 116.067 397.868 119.57V119.718C397.868 124.207 396.142 127.71 392.688 130.226C389.284 132.742 384.474 134 378.258 134H351.544V82.2ZM400.743 82.2H415.099V121.42H440.185V134H400.743V82.2ZM442.642 82.2H484.304V94.41H456.85V102.254H481.714V113.576H456.85V121.79H484.674V134H442.642V82.2Z" fill="white"/>
</svg>
