<svg width="134" height="134" viewBox="0 0 134 134" fill="none" xmlns="http://www.w3.org/2000/svg">
<g clip-path="url(#clip0_167_4)">
<rect width="134" height="134" rx="20" fill="white"/>
<path d="M-105 0H229V134H-105V0Z" fill="#D40A3E"/>
<path d="M-24.84 0H-78.28L40.8467 134H94.2867L-24.84 0Z" fill="white"/>
<path d="M82.04 0H28.6L147.727 134H201.167L82.04 0Z" fill="white"/>
<path d="M188.92 0H135.48L229 105.196V45.0841L188.92 0Z" fill="white"/>
<path d="M-105 30.0562V90.1681L-66.0333 134H-12.5933L-105 30.0562Z" fill="white"/>
<rect width="110" height="65" transform="translate(12 35)" fill="white"/>
<path d="M27.968 45.2H63.808V56.08H40.384V63.696H61.568V74H40.384V90H27.968L27.968 45.2ZM79.004 67.216L64.284 45.2H78.556L86.492 57.808L94.492 45.2H108.444L93.724 67.088L109.084 90H94.812L86.236 76.496L77.596 90H63.644L79.004 67.216Z" fill="black"/>
</g>
<defs>
<clipPath id="clip0_167_4">
<rect width="134" height="134" rx="20" fill="white"/>
</clipPath>
</defs>
</svg>
